<?xml version="1.0" standalone="no"?>
<!DOCTYPE svg PUBLIC "-//W3C//DTD SVG 20010904//EN"
 "http://www.w3.org/TR/2001/REC-SVG-20010904/DTD/svg10.dtd">
<svg version="1.0" xmlns="http://www.w3.org/2000/svg"
 width="512.000000pt" height="512.000000pt" viewBox="0 0 512.000000 512.000000"
 preserveAspectRatio="xMidYMid meet">
<metadata>
Created by potrace 1.14, written by Peter Selinger 2001-2017
</metadata>
<g transform="translate(0.000000,512.000000) scale(0.100000,-0.100000)"
fill="#000000" stroke="none">
<path d="M2350 4954 c-74 -30 -205 -84 -290 -119 -85 -35 -227 -93 -315 -130
-88 -37 -196 -82 -240 -100 -540 -222 -618 -257 -670 -302 -45 -39 -76 -97
-155 -288 -45 -110 -88 -213 -95 -230 -7 -16 -45 -109 -85 -205 -39 -96 -77
-188 -84 -205 -8 -16 -34 -79 -59 -140 -244 -587 -237 -568 -233 -700 3 -70
10 -97 54 -205 125 -308 154 -377 167 -405 7 -16 33 -79 58 -140 64 -158 77
-188 87 -210 5 -11 59 -141 121 -290 129 -314 155 -366 212 -426 62 -66 118
-101 257 -158 69 -28 145 -60 170 -71 25 -11 178 -74 340 -140 162 -67 304
-125 315 -130 64 -30 413 -173 464 -190 146 -49 258 -45 411 14 36 13 157 64
270 111 113 48 210 88 215 89 6 2 21 8 35 14 41 17 504 209 650 269 182 75
241 107 300 165 94 93 123 146 266 493 52 127 99 239 104 250 14 30 324 783
346 840 15 38 19 75 18 155 -1 103 -2 108 -53 235 -29 72 -59 146 -68 165 -22
51 -28 65 -71 170 -340 822 -377 912 -419 996 -44 89 -114 172 -187 218 -28
18 -256 117 -506 220 -472 195 -598 248 -810 337 -295 124 -320 126 -520 43z
m710 -369 c234 -97 475 -197 535 -222 61 -25 124 -51 140 -58 17 -8 94 -40
172 -72 217 -89 233 -107 351 -398 45 -109 239 -580 387 -935 96 -232 114
-294 108 -370 -2 -27 -37 -125 -84 -240 -45 -107 -106 -256 -136 -330 -30 -74
-66 -159 -79 -188 -13 -29 -24 -55 -24 -58 0 -3 -8 -24 -19 -47 -10 -23 -69
-168 -132 -322 -159 -390 -98 -338 -684 -579 -613 -252 -813 -335 -853 -352
-45 -21 -145 -37 -220 -35 -51 0 -87 10 -185 49 -214 86 -1221 504 -1258 523
-40 20 -124 119 -156 184 -11 22 -60 135 -107 250 -48 116 -91 219 -96 230 -5
11 -89 211 -186 445 -161 389 -177 431 -180 494 -2 46 2 80 12 105 9 20 36 85
60 145 24 59 50 122 58 140 7 17 24 56 36 86 12 30 28 69 35 85 7 17 56 136
109 265 126 305 112 271 150 360 8 19 36 87 61 150 104 258 93 247 335 345 63
26 133 55 155 65 22 9 54 23 70 30 17 6 237 98 490 202 253 105 482 200 509
212 40 18 65 22 125 21 74 -2 89 -8 501 -180z"/>
</g>
</svg>
